<svg version="1.2" xmlns="http://www.w3.org/2000/svg" viewBox="0 0 90 90" width="150" height="150">
	<title>chat1-svg</title>
	<path  d="m45 1.1c24.3 0 43.9 19.6 43.9 43.9 0 34-37 54.8-65.9 38l-14.5 5.8c-1.6 0.6-3.1-1-2.5-2.5l5.4-13c-14.7-17.4-13.6-43.2 2.5-59.4 8-7.9 19-12.8 31.1-12.8zm28.3 15.5c-15.6-15.6-41-15.6-56.6 0-15.1 15.1-15.7 39.2-1.6 55.1 0.5 0.5 0.6 1.3 0.3 2l-4.1 9.8 11.1-4.4c0.5-0.2 1.2-0.2 1.8 0.1 26.3 16.1 60.9-2.7 60.9-34.2 0-11.1-4.5-21.1-11.8-28.4zm-46.3 37.1h36c2.5 0 2.5 3.9 0 3.9h-36c-2.5 0-2.5-3.9 0-3.9zm0-21.3h36c2.5 0 2.5 3.8 0 3.8h-36c-2.5 0-2.5-3.8 0-3.8z"/>

	
</svg>