<svg version="1.2" xmlns="http://www.w3.org/2000/svg" viewBox="0 0 90 90" width="150" height="150">
	<title>noun-chat-6517120-svg</title>
	
	<path d="m13.2 13.2c17.6-17.6 46-17.6 63.6 0 17.8 17.7 17.5 46.4-0.3 63.9 3 3.9 7.7 7.4 12.5 9.6 1.7 0.8 1.1 3.2-0.7 3.3-8.3 0.2-16.2-1.3-23.4-4.6-29.6 14.5-64.9-6.9-64.9-40.4 0-12.4 5-23.7 13.2-31.8zm31.8-9.7c-22.9 0-41.5 18.5-41.5 41.5 0 31.3 33.2 51 60.6 36.9 0.5-0.3 1-0.3 1.5 0 4.9 2.4 10.2 3.8 15.8 4.4-3.4-2.4-6.4-5.2-8.6-8.5-0.5-0.7-0.3-1.7 0.3-2.2 17.3-15.9 18-43.2 1.3-60-7.6-7.5-17.9-12.1-29.4-12.1zm-24.8 37.2c3.8-3.8 10.3-1.1 10.3 4.3 0 5.3-6.5 8.1-10.3 4.3-2.4-2.4-2.4-6.2 0-8.6zm20.5 0c3.8-3.8 10.4-1.1 10.4 4.3 0 5.3-6.6 8.1-10.4 4.3-2.3-2.4-2.4-6.2 0-8.6zm4.3 6.9c3.4 0 3.4-5.2 0-5.2-3.4 0-3.4 5.2 0 5.2zm16.3-6.9c3.8-3.8 10.3-1.1 10.3 4.3 0 5.3-6.5 8.1-10.3 4.3-2.4-2.4-2.4-6.2 0-8.6zm4.2 6.9c3.4 0 3.5-5.2 0-5.2-3.4 0-3.4 5.2 0 5.2zm-41 0c3.4 0 3.4-5.2 0-5.2-3.5 0-3.5 5.2 0 5.2z" fill="white"/>

</svg>