<svg class = "clipboard" version="1.2"   viewBox="0 0 433 434" width="433" height="434">
	<defs>
    <filter id="drop-shadow">
      <feDropShadow dx="4" dy="4" stdDeviation="2" flood-color="#000000" flood-opacity="0.5" />
    </filter>
  </defs>
	
	<g  filter="url(#drop-shadow)">
		<path id="Layer" fill-rule="evenodd"   d="m51.5 13.6c-16.8 26.4-21.5 93-18.9 167.4 3.1 88.3 16.1 188 30.8 242.2-28.8-10-40.6-31.3-44.9-60.8-12.9-89-19.7-188.6-16.4-278.5 1-27.8 12.6-57.8 40.8-67.6 2.2-0.8 6.5-2.4 8.6-2.7zm45.6 416.1c-8.9-0.8-17.1-2.1-24.7-3.9-20.7-70.9-29.2-171.2-31.8-245.1-0.9-26.8-6-159.6 26.5-170.8 63.9-12.8 197.4-14.5 257.1 6.4 28.2 9.8 39.8 39.8 40.8 67.6 1.7 45.7 0.7 94-2.3 142.1l-9.1-4.4c-9.2-4.4-19-4.4-28.3 0l-68.4 32.7c-12.7 6.1-19.9 19-18.5 33 5.5 53.4 25.3 103.4 65.3 135.8-9.7 3.4-20.9 5.4-33.7 6.6-56.4 5.2-116.5 5.2-172.9 0zm63.6-314.2c-5.3 0.2-5 8.1 0.2 8 41.5-1.2 116.8-0.1 158.2 2.4 5.2 0.3 5.6-7.7 0.4-8-40.8-2.5-117.8-3.6-158.8-2.4zm-95.9-11.1c0 21.2 17.2 38.3 38.3 38.3 21.2 0 38.4-17.1 38.4-38.3 0-21.2-17.2-38.4-38.4-38.4-21.1 0-38.3 17.2-38.3 38.4zm59.8 21.5c-11.9 11.8-31.1 11.8-42.9 0-11.9-11.9-11.9-31.1 0-43 11.8-11.8 31-11.8 42.9 0 11.8 11.9 11.8 31.1 0 43zm51.1 227.8c-5.2 0.2-5 8.1 0.2 8 20-0.6 41.2-0.6 62.2-0.4 5.2 0.1 5.3-7.9 0-8-20.8-0.2-42.6-0.2-62.4 0.4zm-35.6 8.7c-18.4 18.3-49.9 5.3-49.9-20.7 0-26 31.5-39.1 49.9-20.7 11.4 11.4 11.4 29.9 0 41.4zm-57.9-20.7c0 20.6 16.7 37.3 37.2 37.3 20.6 0 37.3-16.7 37.3-37.3 0-20.6-16.7-37.2-37.3-37.2-20.5 0-37.2 16.6-37.2 37.2zm84.2-107.2c-5.2 0.1-5 8.1 0.2 7.9 26.3-0.6 57.7-0.4 85.6 0.1 5.2 0.1 5.4-7.9 0.1-8-27.7-0.5-59.8-0.7-85.9 0zm-0.9-37.1c-5.3 0.2-5.1 8.1 0.2 8 41.3-1.1 109.7-0.1 151.2 2.1 5.2 0.3 5.7-7.7 0.4-7.9-40.8-2.3-111-3.2-151.8-2.2zm-95.6 24.9c0 21.2 17.2 38.3 38.3 38.3 21.2 0 38.4-17.1 38.4-38.3 0-21.2-17.2-38.3-38.4-38.3-21.1 0-38.3 17.1-38.3 38.3zm59.8 21.5c-11.9 11.8-31.1 11.8-42.9 0-11.9-11.9-11.9-31.1 0-42.9 11.8-11.9 31-11.9 42.9 0 11.8 11.8 11.8 31 0 42.9zm48.1 77.3c-5.2 0.1-5 8.1 0.2 7.9 16.3-0.4 33.1-0.4 50.1-0.4 5.3 0.1 5.3-7.9 0.1-7.9-17-0.1-34.2 0-50.4 0.4zm-20.8-242.6c-5.2 0.2-4.9 8.2 0.3 8 40.8-1.4 120.1-0.2 161.1 2.2 5.3 0.3 5.7-7.7 0.5-7.9-40.7-2.5-121.3-3.7-161.9-2.3zm170 351c-50.8-29.5-74.5-84.2-80.6-143-1.1-10.7 4.3-20.4 14-25l68.3-32.7c7.1-3.3 14.5-3.3 21.5 0l68.4 32.7c9.7 4.6 15.1 14.3 14 25-6.1 58.8-29.8 113.5-80.6 143-8 4.6-17.1 4.6-25 0zm-15.2-124.3c-8.9 0-16.8 7.3-16.2 16.4l3 45.6c0.6 8.7 7.3 15.9 16.1 15.9h49.5c8.9 0 15.5-7.2 16.1-15.9l3-45.6c0.5-7.9-5.4-14.5-12.7-16.1v-13.3c0-16.3-13.4-29.7-29.7-29.7-16.3 0-29.6 13.4-29.6 29.7v3.9c0 5.2 8 5.2 8 0v-3.9c0-11.9 9.7-21.7 21.7-21.7 11.8 0 21.6 9.8 21.6 21.7v13zm63.5 15.8l-3 45.7c-0.2 4.5-3.5 8.4-8.1 8.4h-49.4c-4.6 0-7.9-3.9-8.2-8.4l-3-45.7c-0.3-4.3 3.8-7.8 8.2-7.8h55.4c4.4 0 8.4 3.5 8.1 7.8zm-27.7 17.3c0-4.5-3.6-8.1-8.1-8.1-4.5 0-8.1 3.6-8.1 8.1 0 3 1.7 5.6 4.1 7.1v7.4c0 5.3 8 5.3 8 0v-7.4c2.4-1.5 4.1-4.1 4.1-7.1z"/>
	</g>
	<!-- <text id="Created by hervvv" style="transform: matrix(1,0,0,1,-39,488)" >
		<tspan x="0" y="0" class="t1">Created by hervvv
</tspan>


	</text>
	<text id="from the Noun Project" style="transform: matrix(1,0,0,1,-39,493)" >
		<tspan x="0" y="0" class="t1">from the Noun Project
</tspan>
	</text> -->
</svg>