<svg version="1.2" xmlns="http://www.w3.org/2000/svg" viewBox="0 0 448 450" width="448" height="450">

<defs>
    <filter id="drop-shadow">
      <feDropShadow dx="4" dy="4" stdDeviation="2" flood-color="#000000" flood-opacity="0.5" />
    </filter>
  </defs>

	<g filter="url(#drop-shadow)">
		<path id="Layer" fill-rule="evenodd" d="m318 436.6c-11.4 4.7-24.9 7.4-40.5 8.8-57 5.3-117.3 5.3-174.3 0-49.4-4.5-78.2-22.3-85.8-74.1-13-89.5-19.8-189.5-16.5-279.9 1.1-31.2 14.7-63.9 46.2-74.9 61.9-21.6 224.6-21.6 286.5 0 31.5 11 45.1 43.7 46.2 74.9 1.7 47 0.7 96.6-2.5 146.1l51.5 24.6c12.8 6.1 20 18.9 18.5 33-3.5 33.8-12.4 64.3-26.9 89.9-14 24.7-33.1 45-57.6 59.2-10.5 6.1-22.6 6.1-33 0-4.1-2.4-8.1-4.9-11.8-7.6zm40.8 0.7c50.8-29.5 74.5-84.2 80.6-143 1.1-10.7-4.3-20.4-14-25l-68.4-32.7c-7-3.3-14.4-3.3-21.4 0l-68.4 32.7c-9.7 4.6-15.1 14.3-14 25 6.1 58.8 29.8 113.5 80.6 143 7.9 4.6 17 4.6 25 0zm10.6-124.4v-12.9c0-11.9-9.8-21.7-21.7-21.7-11.9 0-21.6 9.8-21.6 21.7v3.9c0 5.2-8 5.2-8 0v-3.9c0-16.3 13.3-29.7 29.6-29.7 16.4 0 29.7 13.4 29.7 29.7v13.3c7.3 1.6 13.2 8.2 12.7 16l-3 45.7c-0.6 8.7-7.2 15.9-16.1 15.9h-49.4c-8.9 0-15.6-7.2-16.2-15.9l-2.9-45.7c-0.6-9 7.2-16.3 16.1-16.3 0 0 50.8 0 50.8-0.1zm-92.6 124.6c12.8-1.2 24-3.2 33.7-6.6-40-32.4-59.7-82.4-65.3-135.8-1.4-14.1 5.8-26.9 18.5-33l68.4-32.7c9.3-4.4 19.1-4.4 28.4 0l9 4.3c3.1-48 4-96.3 2.4-142-1.1-27.8-12.7-57.8-40.9-67.6-59.7-20.9-193.2-19.2-257.1-6.4-32.5 11.2-27.4 144-26.5 170.8 2.6 73.9 11.2 174.2 31.8 245.1 7.6 1.9 15.8 3.1 24.7 3.9 56.4 5.2 116.5 5.2 172.9 0zm48.9-349c5.2 0.3 4.8 8.3-0.5 8-41-2.4-120.4-3.7-161.1-2.2-5.3 0.2-5.6-7.8-0.3-8 40.6-1.4 121.1-0.2 161.9 2.2zm-90.7 239.9c5.2 0.1 5.2 8 0 8-17.1 0-33.9 0-50.1 0.4-5.3 0.1-5.5-7.8-0.2-8 16.1-0.4 33.3-0.4 50.3-0.4zm-120-136.6c21.2 0 38.4 17.1 38.4 38.3 0 21.2-17.2 38.3-38.4 38.3-21.1 0-38.3-17.1-38.3-38.3 0-21.2 17.2-38.3 38.3-38.3zm21.5 16.9c-11.9-11.9-31.1-11.9-42.9 0-11.9 11.8-11.9 31 0 42.8 11.8 11.9 31 11.9 42.9 0 11.8-11.8 11.8-31 0-42.8zm187.6-1.3c5.3 0.2 4.8 8.2-0.4 7.9-41.5-2.2-109.8-3.2-151.2-2.1-5.3 0.1-5.5-7.9-0.2-8 40.8-1 111-0.1 151.8 2.2zm-65 34.9c5.3 0.1 5.2 8.1-0.1 8-27.9-0.5-59.3-0.7-85.6-0.1-5.2 0.1-5.4-7.8-0.2-8 26.1-0.6 58.3-0.4 85.9 0.1zm-132.9 69.9c20.6 0 37.3 16.7 37.3 37.3 0 20.6-16.7 37.2-37.3 37.2-20.5 0-37.2-16.6-37.2-37.2 0-20.6 16.7-37.3 37.2-37.3zm20.7 16.6c-18.4-18.4-49.9-5.3-49.9 20.7 0 25.9 31.5 39 49.9 20.7 11.4-11.4 11.4-30 0-41.4zm98 32.3c5.3 0.1 5.2 8.1 0 8-21-0.2-42.2-0.2-62.1 0.3-5.3 0.2-5.5-7.8-0.2-7.9 19.7-0.6 41.5-0.6 62.3-0.4zm-135-287.3c21.2 0 38.4 17.2 38.4 38.4 0 21.1-17.2 38.3-38.4 38.3-21.1 0-38.3-17.2-38.3-38.3 0-21.2 17.2-38.4 38.3-38.4zm21.5 16.9c-11.9-11.8-31.1-11.8-42.9 0-11.9 11.9-11.9 31.1 0 42.9 11.8 11.9 31 11.9 42.9 0 11.8-11.8 11.8-31 0-42.9zm194.9 35c5.2 0.3 4.8 8.3-0.5 8-41.3-2.5-116.6-3.6-158.1-2.5-5.2 0.2-5.5-7.8-0.2-7.9 41-1.2 118-0.1 158.8 2.4zm47.7 195.2h-55.4c-4.4 0-8.5 3.6-8.2 8l3 45.6c0.3 4.5 3.6 8.4 8.2 8.4h49.4c4.6 0 7.9-3.9 8.1-8.4l3-45.6c0.3-4.4-3.7-8-8.1-8zm-23.7 32.2v7.5c0 5.3-8 5.3-8 0v-7.5c-2.5-1.4-4.1-4-4.1-7 0-4.5 3.6-8.1 8.1-8.1 4.5 0 8.1 3.6 8.1 8.1 0 3-1.7 5.7-4.1 7zm-300.6-329c-28.2 9.8-39.8 39.8-40.9 67.6-3.2 89.9 3.6 189.4 16.5 278.5 4.3 29.5 16.1 50.8 44.9 60.7-14.8-54.1-27.7-153.8-30.8-242.1-2.6-74.4 2.1-141 18.9-167.4-2.1 0.3-6.4 1.9-8.6 2.7z" />
	</g>
	<!-- <text id="Created by hervvv" style="transform: matrix(1,0,0,1,-37,489)" >
		<tspan x="0" y="0" class="t1">Created by hervvv
</tspan>
	</text>
	<text id="from the Noun Project" style="transform: matrix(1,0,0,1,-37,494)" >
		<tspan x="0" y="0" class="t1">from the Noun Project
</tspan>
	</text> -->
</svg>