<svg version="1.2" xmlns="http://www.w3.org/2000/svg" viewBox="0 0 418 434" width="418" height="434">
	<defs>
    <filter id="drop-shadow">
      <feDropShadow dx="4" dy="4" stdDeviation="2" flood-color="#000000" flood-opacity="0.5" />
    </filter>
  </defs>
	
	<g  filter="url(#drop-shadow)">
		<path id="Layer" d="m287.1 181.7c-7.8-0.7-15.6-1-23.5-1.1 31.8 39.3 28.8 96.3-6.9 132.1-38.6 38.6-101.2 38.6-139.8 0-38.6-38.6-38.6-101.1 0-139.7 12.8-12.8 29-22.1 47.3-26.4v-89.4c-2.2 2.3-3.6 5.3-4 8.7-4.8 40.6-28.3 48.1-55.9 18.2-5.4-5.9-14.2-6.7-20.6-2.1l-18 13.1c-6.4 4.7-8.3 13.3-4.4 20.2 19.9 35.7 5.4 55.6-34.6 47.6-7.8-1.6-15.4 2.9-17.9 10.5l-6.8 21.1c-2.5 7.6 1 15.7 8.3 19 13.3 6.1 27.7 15.9 27.7 29.4 0 13.5-14.4 23.2-27.7 29.3-7.2 3.4-10.8 11.4-8.3 19l6.8 21.2c2.5 7.5 10.1 12 17.9 10.4 40-8 54.6 12 34.5 47.6-3.8 6.9-1.9 15.5 4.5 20.2l18 13.1c6.4 4.7 15.2 3.8 20.6-2.1 27.6-29.9 51.1-22.3 55.9 18.2 0.9 7.9 7.5 13.8 15.5 13.8h22.2c8 0 14.6-5.9 15.4-13.9 4.7-41.1 27.8-49.1 56-18.2 5.4 5.9 14.2 6.8 20.6 2.1l18-13c6.4-4.7 8.3-13.3 4.4-20.2-20-35.6-5.4-55.6 34.5-47.6 7.9 1.6 15.5-2.8 17.9-10.4l6.9-21.2c2.5-7.6-1.1-15.6-8.3-18.9-9.8-4.6-16.9-9.5-21.5-14.6-5.6-6.5-8-14-4.8-22-10.9 2.4-21.9 2.5-32.9 0.4-9.9-1.9-17-10.5-17-20.7 0 0 0-33.7 0-33.7zm53.1-55.4v42.6c0 10.1-9.1 19.4-19.9 17.3q-12.5-2.4-25.2-3.8v33c0 6.4 4.4 11.6 10.6 12.8 18 3.4 36 0.3 53.9-9.8 18.3-10.3 36.5-27.8 54.7-52.9 5.7-7.9 1.1-19-8.6-20.5-23.5-3.6-46.2-9.4-65.5-18.7zm-130.8 50.8c38.5-6.3 75.1-5.9 112.4 1.3 5.7 1.1 10.3-4.2 10.3-9.5v-129.6c0-5.7-5.1-11.3-10.6-12.6-37.3-8.7-74.6-8.6-112.1-1.5zm-12.3 131.6c2.6-2.7 4.3-6.3 4.3-10.3v-283.3c0-12.9-15.7-19.6-24.9-10.3-2.7 2.6-4.3 6.3-4.3 10.3v283.3c0 12.8 15.6 19.6 24.9 10.3z"/>
	</g>

</svg>