<svg version="1.2" xmlns="http://www.w3.org/2000/svg" viewBox="0 0 433 450" width="433" height="450">
	<defs>
    <filter id="drop-shadow">
      <feDropShadow dx="4" dy="4" stdDeviation="2" flood-color="#000000" flood-opacity="0.5" />
    </filter>
  </defs>

	<g  filter="url(#drop-shadow)">
		<path id="Layer" fill-rule="evenodd"  d="m217.4 25.1c38-7 76.1-7 113.9 1.8 9.1 2.1 16.8 10.9 16.8 20.4v78.1c19.5 10 43 16.1 66.8 19.7 15.6 2.4 23.1 20.3 13.8 33.1-18.8 26.1-37.9 44.4-57.2 55.2q-7.3 4.2-14.7 6.9c-6.4 6.5-7.2 13-1 20.1 3.9 4.3 10.1 8.6 18.8 12.6 10.9 5 16.3 17.3 12.6 28.7l-6.9 21.1c-3.7 11.4-15.3 18.2-27 15.9-14.6-2.9-35.6-4.2-33.9 14.5 0.6 5.7 3.2 12.9 7.9 21.3 5.8 10.5 3 23.5-6.8 30.6l-17.9 13c-9.7 7.1-23.2 5.7-31.3-3.2-7.5-8.3-19.3-18.6-28.3-15.7-9 3-12.5 18.4-13.7 29.4-1.4 12-11.4 21-23.4 21h-22.2c-12 0-22-8.9-23.5-20.9-1.2-11-4.8-25.8-13.9-28.8-9-2.9-20.6 7-28.2 15.2-8.1 8.8-21.4 10.1-31.1 3.1l-18-13.1c-9.7-7.1-12.6-20.1-6.7-30.6 7.3-12.9 14.9-32.6-3.3-36.7-5.7-1.2-13.3-1-22.7 0.9-11.8 2.3-23.3-4.5-27.1-15.9l-6.8-21.1c-3.7-11.4 1.6-23.7 12.5-28.7 10.1-4.7 23.1-12.7 23.1-22.2 0-9.5-13-17.5-23.1-22.1-10.8-5-16.2-17.3-12.5-28.7l6.8-21.1c3.8-11.4 15.4-18.2 27.1-15.9 14.6 3 35.6 4.2 33.8-14.5-0.5-5.7-3.1-12.9-7.8-21.3-5.9-10.5-3-23.5 6.7-30.6l18-13.1c9.7-7 23-5.7 31.2 3.1 7.5 8.2 19.1 18.1 28.2 15.2 9-3 12.6-17.8 13.9-28.8 0.9-7.7 5.4-14.3 11.9-17.9v-32c0-19.9 24.2-30.3 38.6-16 4 4.1 6.6 9.8 6.6 16zm0 160c38.5-6.4 75.1-6 112.4 1.3 5.6 1.1 10.3-4.3 10.3-9.5v-129.6c0-5.7-5.1-11.4-10.6-12.7-37.4-8.7-74.6-8.5-112.1-1.4zm-12.3 131.6c2.7-2.7 4.3-6.3 4.3-10.4v-283.3c0-12.8-15.7-19.5-24.9-10.3-2.7 2.7-4.3 6.3-4.3 10.3v283.3c0 12.9 15.6 19.6 24.9 10.4zm143-182.5v42.7c0 10-9 19.4-19.8 17.3q-12.5-2.4-25.2-3.8v33c0 6.3 4.4 11.6 10.6 12.8 18 3.4 36 0.3 53.9-9.8 18.3-10.3 36.5-27.8 54.7-52.9 5.7-7.9 1.1-19-8.6-20.5-23.5-3.6-46.2-9.5-65.6-18.8zm-53 55.4q-11.6-1-23.5-1c31.9 39.3 28.9 96.3-6.9 132.1-38.6 38.6-101.2 38.6-139.8 0-38.6-38.6-38.6-101.2 0-139.8 12.8-12.8 29.1-22.1 47.3-26.3v-89.5c-2.2 2.4-3.6 5.4-4 8.8-4.8 40.5-28.3 48.1-55.9 18.1-5.4-5.8-14.2-6.7-20.6-2l-18 13.1c-6.5 4.7-8.3 13.3-4.4 20.2 19.9 35.6 5.4 55.5-34.6 47.5-7.8-1.5-15.4 2.9-17.9 10.5l-6.8 21.2c-2.5 7.5 1 15.6 8.3 18.9 13.3 6.2 27.7 15.9 27.7 29.4 0 13.5-14.4 23.2-27.7 29.4-7.2 3.3-10.8 11.4-8.3 19l6.8 21.1c2.5 7.6 10.1 12.1 17.9 10.5 40-8 54.5 11.9 34.6 47.5-3.9 7-2.1 15.6 4.4 20.3l18 13.1c6.4 4.6 15.2 3.8 20.6-2.1 27.6-29.9 51.1-22.4 55.9 18.2 0.9 7.9 7.5 13.7 15.5 13.7h22.2c8 0 14.5-5.9 15.4-13.8 4.7-41.1 27.8-49.1 56-18.2 5.3 5.9 14.2 6.8 20.6 2.1l18-13c6.4-4.7 8.3-13.3 4.4-20.2-20-35.6-5.4-55.6 34.5-47.6 7.9 1.6 15.4-2.9 17.9-10.4l6.9-21.2c2.4-7.6-1.1-15.6-8.3-19-9.8-4.5-16.9-9.4-21.5-14.6-5.6-6.4-8-14-4.8-21.9-10.9 2.4-21.9 2.5-32.9 0.4-9.9-2-17-10.5-17-20.7v-33.8zm-34-0.8c-14.1 0.4-28.6 1.8-43.7 4.4v113.1c0 19.9-24.3 30.3-38.6 16-4.1-4.1-6.6-9.7-6.6-16v-143.5c-39.7 10.2-68.3 46.1-68.3 88 0 50.2 40.7 90.9 90.9 90.9 50.1 0 90.8-40.7 90.8-90.9 0-24-9.3-45.8-24.5-62z"/>
	</g>

</svg>