<svg version="1.2" xmlns="http://www.w3.org/2000/svg" viewBox="0 0 94 80" width="200" height="170">
	
	<g id="Layer">
		<path id="Layer" class="s0" d="m0.3 78.3c0 0.5 0.2 0.9 0.5 1.2 0.3 0.3 0.8 0.5 1.2 0.5h90c0.4 0 0.9-0.2 1.2-0.5 0.3-0.3 0.5-0.7 0.5-1.2v-61.6h-93.4z"/>
		<path id="Layer" fill-rule="evenodd" class="s0" d="m93.7 13.3h-93.4v-11.6c0-1 0.8-1.7 1.7-1.7h90c0.4 0 0.9 0.2 1.2 0.5 0.3 0.3 0.5 0.7 0.5 1.2zm-68.4-6.7c0-0.9-0.7-1.7-1.6-1.7h-18.4c-0.9 0-1.6 0.8-1.6 1.7 0 0.9 0.7 1.7 1.6 1.7h18.4c0.9 0 1.6-0.8 1.6-1.7zm8.4 0c0-0.9-0.8-1.7-1.7-1.7h-1.7c-0.9 0-1.6 0.8-1.6 1.7 0 0.9 0.7 1.7 1.6 1.7h1.7c0.9 0 1.7-0.8 1.7-1.7zm8.3 0c0-0.9-0.7-1.7-1.7-1.7h-1.6c-1 0-1.7 0.8-1.7 1.7 0 0.9 0.7 1.7 1.7 1.7h1.6c1 0 1.7-0.8 1.7-1.7z"/>
	</g>
	
</svg>