<svg version="1.2" xmlns="http://www.w3.org/2000/svg" viewBox="0 0 100 100" width="100" height="100">
	<title>noun-email-6808180-svg</title>
	<style>
		tspan { white-space:pre } 
		.s0 { fill: #000000 } 
		.t1 { font-size: 5px;fill: #000000;font-family: "Arbeit  Regular" } 
	</style>
	<g id="Layer">
		<path id="Layer" class="s0" d="m85.3 48l1.7-1.3 4.8-3.4 5.7-4.1-13.4-9.9v19.6l0.1-0.1q0.5-0.4 1.1-0.8z"/>
		<path id="Layer" class="s0" d="m16.1 49.1v-19.7c-0.1-0.1 0-0.1-0.1-0.1l-13.6 9.9 5.9 4.2z"/>
		<path id="Layer" class="s0" d="m50.4 11.3h16.5l-2.7-1.9-7.1-5.2-3.2-2.4q-1-0.7-2-1.3c-0.7-0.4-1.6-0.6-2.4-0.5q-0.9 0.1-1.8 0.6-0.8 0.6-1.6 1.2l-2.3 1.6-10.9 7.9z"/>
		<path id="Layer" fill-rule="evenodd" class="s0" d="m77.3 13.3c1.2 0.2 2.4 0.8 3.2 1.6 0.8 0.7 1.2 1.7 1.4 2.7q0.2 1.7 0.1 3.4v29.4l-15.2 10.8-8.3 6c-0.2 0-0.7-0.4-0.9-0.6l-2.8-2q-1-0.7-2-1.3-0.8-0.4-1.8-0.5-1.2-0.3-2.4 0c-1.6 0.3-2.9 1.3-4.1 2.2l-3.1 2.2c-0.2 0-1.8-1.3-2.1-1.5l-4.6-3.3-10.6-7.6-5.9-4.3v-9.9-14.8-5.2c0-0.9-0.1-2 0.1-2.9q0.3-1.2 1-2.2c0.9-1.3 2.3-2 3.9-2.2h52.1q1 0 2 0zm-10.5 14.9c-1.4-3.5-4.3-6.2-7.8-7.7-2.3-1-4.9-1.5-7.5-1.5q-0.8 0-1.7 0.1l-1.6 0.2c-5.1 0.8-9.7 3.6-12.6 7.8-2.9 4-4.3 9.3-3.4 14.1 0.7 4.1 3 7.7 6.3 10.1 5 3.5 11.1 4 16.9 2.9q3.3-0.6 6.2-2.1l-1.1-3.3c-5 2.3-10.9 3-16.1 1-2.8-1.1-5.4-3.3-6.7-6.1-1.4-3.5-1.5-7.5-0.1-11.1 1.5-3.6 4.2-6.5 7.8-8.1 3.6-1.5 7.7-1.5 11.4-0.1l1.1 0.5c2.5 1.4 4.3 3.4 5.1 6.3 0.7 2.5 0.6 5.6-0.8 7.9-0.7 1.3-2 2.6-3.4 3q-0.5 0.2-1.1 0c-0.2-0.2-0.4-0.5-0.4-0.9q0-0.6 0.2-1.3l0.4-2.4 1.7-9.7h-4.3l-0.4 1.7c-1-1.2-2.5-1.9-4.2-2-2.4-0.2-4.9 0.6-6.8 2.2-2.2 1.9-3.5 4.6-3.8 7.5-0.2 2.3 0.1 4.7 1.7 6.5 1.2 1.4 2.9 2.2 4.7 2.4 2.1 0.2 4.2-0.5 5.8-1.9l1.1-1.1c0.4 1.1 0.9 2.1 2 2.7 1.5 0.6 3.4 0.3 4.8-0.3 3-1.2 5.3-3.5 6.6-6.4 1.5-3.3 1.4-7.5 0-10.9z"/>
		<path id="Layer" class="s0" d="m52 31.6q-1.1-0.4-2.2-0.3c-1.4 0.1-2.6 0.8-3.4 1.8-1.2 1.5-1.7 3.7-1.5 5.6 0.1 1 0.5 1.9 1.3 2.5 0.8 0.7 1.9 0.9 3 0.7h0.1c1.5-0.3 2.7-1.1 3.6-2.2q0.1-0.3 0.2-0.5c0.2-0.6 1-5.4 1-5.7-0.3-0.8-1.3-1.6-2.1-1.9z"/>
		<path id="Layer" class="s0" d="m98.3 41.5q0-0.1 0-0.2l-38.1 27.3 3.7 2.6 5.3 3.8 12.7 9.1 8.6 6.1c1.3 1 2.8 1.9 4.1 2.9q0.3 0.3 0.5 0.7c0 0.3 0 0.6-0.2 0.9-0.2 0.3-0.5 0.4-0.8 0.4q-0.4 0-0.7-0.2c-1.3-0.8-2.5-1.7-3.7-2.6l-8.6-6.1-5.4-3.9-18.4-13.1-3.5-2.5q-1-0.8-2.1-1.5c-0.8-0.4-1.7-0.5-2.6-0.3q-0.7 0.1-1.4 0.6c-1.3 0.8-2.6 1.8-3.9 2.8l-9.6 6.9-24 17.2-2.3 1.7c-0.5 0.3-1.1 1-1.6 1.1-0.4 0.1-0.8-0.1-1-0.3-0.2-0.2-0.4-0.5-0.4-0.8 0-0.3 0.2-0.6 0.4-0.8q0.8-0.7 1.7-1.3l3.9-2.8 11.4-8.2 17.3-12.5-37.9-27.2v48.4q-0.1 1.3 0.1 2.6c0.3 1.8 1.2 3.5 2.6 4.9 1.5 1.5 3.5 2.5 5.6 2.7q1.3 0.1 2.6 0.1h76.3c4.6 0 8.5-3.3 9.3-7.8q0.2-1.4 0.1-2.7v-37.2z"/>
	</g>
	<text id="Created by VV" style="transform: matrix(1,0,0,1,0,117.5)" >
		<tspan x="0" y="0" class="t1">Created by VV
</tspan>
	</text>
	<text id="from Noun Project" style="transform: matrix(1,0,0,1,0,122.5)" >
		<tspan x="0" y="0" class="t1">from Noun Project
</tspan>
	</text>
</svg>