<svg version="1.2" xmlns="http://www.w3.org/2000/svg" viewBox="0 0 80 80" width="200" height="200">
	<title>noun-phone-4881704-svg</title>
	<style>
		tspan { white-space:pre } 
		.s0 { fill: #000000 } 
		.t1 { font-size: 5px;fill: #000000;font-family: "' Helvetica  Neue'" } 
	</style>
	<path id="Layer" fill-rule="evenodd" class="s0" d="m60.5 6.7v66.6c0 3.7-3 6.7-6.7 6.7h-27.6c-3.7 0-6.6-3-6.6-6.7v-66.6c0-3.7 2.9-6.7 6.7-6.7h27.5c3.7 0 6.6 3 6.7 6.7zm-13.8-1.6c0 0.6 0.5 1 1.1 1 0.6 0 1-0.4 1-1 0-0.6-0.4-1.1-1-1.1-0.6 0-1.1 0.5-1.1 1.1zm-11.5 0c0 0.4 0.3 0.7 0.8 0.7h8c0.5 0 0.8-0.3 0.8-0.7 0-0.4-0.3-0.8-0.8-0.8h-8c-0.5 0-0.8 0.4-0.8 0.8zm7.6 69.8c0-1.6-1.3-2.8-2.8-2.8-1.5 0-2.8 1.2-2.8 2.8 0 1.5 1.3 2.8 2.8 2.8 1.5 0 2.8-1.3 2.8-2.8zm14.9-4.4v-60.6h-35.4v60.6z"/>
	<text id="Created by ainul muttaqin" style="transform: matrix(1,0,0,1,-10,105)" >
		<tspan x="0" y="0" class="t1">Created by ainul muttaqin
</tspan>
	</text>
	<text id="from the Noun Project" style="transform: matrix(1,0,0,1,-10,110)" >
		<tspan x="0" y="0" class="t1">from the Noun Project
</tspan>
	</text>
</svg>