<svg version="1.2" xmlns="http://www.w3.org/2000/svg" viewBox="0 0 470 470" width="100" height="100">
	<title>noun-privacy-6497860-svg</title>
	<style>
		tspan { white-space:pre } 
		.s0 { fill: #000000 } 
		.t1 { font-size: 5px;fill: #000000;font-family: "' Helvetica  Neue'" } 
	</style>
	<path id="Layer" fill-rule="evenodd" class="s0" d="m157.4 219.9v-18.1c0-2.8-2.2-5-5-5h-3.4c-9.9-33-14.3-67.2-13-101.8l166.9-90.7 166.9 90.7c2.3 60.2-12.7 118.1-41.7 167.9-28.9 50-71.9 91.8-125.2 119.5q-18-9.3-34.6-20.9c0.4-0.7 0.6-1.5 0.6-2.3v-45.9c0-2.8-2.2-5-5-5h-18.1c-3-12.3-7.8-23.9-14.3-34.6l2.1-2.1c18.3 22.2 41.1 40.6 67 53.8 1.4 0.7 3.1 0.8 4.6 0 37-18.9 66.9-47.7 86.9-82.3 20-34.5 30.3-74.7 28.3-116.4-0.1-1.7-1-3.3-2.6-4.1l-112.5-61.2c-1.4-0.8-3.2-0.9-4.8 0l-112.3 61.1c-1.6 0.7-2.7 2.3-2.8 4.2-1.6 33.3 4.6 66 18 96.1l-11.4 11.4c-10.7-6.5-22.3-11.3-34.6-14.3zm57.9 4.9c-14.3-29.4-21.2-61.9-20.1-94.8l107.7-58.6 107.7 58.6c1.3 38.7-8.5 76-27.1 108.1-18.7 32.2-46.3 59.2-80.6 77.2-24.1-12.7-45.2-29.9-62.2-50.7l3.6-3.7c2-1.9 2-5.1 0-7.1zm45.8-51.8v73.7c0 2.8 2.2 5 5 5h73.7c2.8 0 5-2.2 5-5v-73.7c0-2.8-2.2-5-5-5h-10.7v-26.9c0-7.2-3-13.8-7.7-18.5-16.5-16.5-44.6-4.5-44.6 18.5v26.9h-10.7c-2.8 0-5 2.2-5 5zm73.7 68.7h-63.7v-63.7q31.9 0 63.7 0zm-16.8-36.8c0-13.3-16.2-20.1-25.7-10.6-7.9 7.9-4.7 21.2 5.7 24.9v7.2c0 6.5 9.9 6.5 9.9 0v-7.2c6-2.1 10.1-7.8 10.1-14.3zm-31.2-63.9c0-4.4 1.9-8.4 4.8-11.3 10.2-10.3 27.5-2.8 27.5 11.3v27h-32.3zm19.7 60.3c2 2 2 5.2 0 7.1-3.1 3.2-8.6 1-8.6-3.5 0-4.5 5.5-6.8 8.6-3.6zm-116.5 43.4c2 1.3 4.6 1 6.2-0.6l12.2-12.1 25.3 25.3-12.1 12.2c-1.8 1.8-1.9 4.6-0.4 6.5 3.7 5.7 7 11.8 9.6 18.3 2.7 6.4 4.8 13.1 6.2 19.9 0.4 2.4 2.5 4 4.8 4v0.1h17.2v35.8h-17.2c-2.5 0-4.7 2-4.9 4.5-1.4 6.7-3.5 13.2-6.1 19.5-2.7 6.5-6 12.7-9.8 18.5-1.3 2.1-1 4.7 0.6 6.3l12.1 12.2-25.3 25.3-12.2-12.1c-1.7-1.8-4.6-1.9-6.5-0.5-5.7 3.8-11.8 7.1-18.3 9.7-6.4 2.7-13.1 4.7-19.9 6.1-2.4 0.5-4 2.6-4 4.9h-0.1v17.2h-35.8v-17.2c0-2.6-2-4.7-4.5-5-6.7-1.3-13.2-3.4-19.5-6-6.5-2.7-12.7-6-18.5-9.8-2-1.4-4.7-1-6.3 0.6l-12.2 12.1-25.3-25.3 12.1-12.2c1.8-1.8 2-4.6 0.5-6.5-3.8-5.8-7-11.9-9.7-18.3-2.7-6.4-4.7-13.1-6.1-19.9-0.5-2.4-2.6-4.1-4.9-4.1h-17.2v-35.8h17.2c2.6 0 4.7-2 5-4.5 1.4-6.7 3.4-13.3 6-19.6 2.7-6.5 6-12.7 9.8-18.5 1.4-2 1-4.6-0.6-6.2l-12.1-12.2 25.3-25.3 12.2 12.1c1.8 1.8 4.6 1.9 6.5 0.4 5.8-3.8 11.9-7 18.3-9.6 6.4-2.7 13.1-4.8 20-6.1 2.3-0.5 4-2.6 4-4.9v-17.2h35.8v17.2c0 2.5 2 4.7 4.5 4.9l0.4 0.1c13.4 2.9 26.3 8.3 37.7 15.8zm-60.5 21.8c-38.5 0-69.7 31.2-69.7 69.7 0 38.5 31.2 69.7 69.7 69.7 38.5 0 69.7-31.2 69.7-69.7 0-38.5-31.2-69.7-69.7-69.7zm-20.8 39.2c-12 12-11.3 31.7 1.5 42.9-12 3.5-22.9 10.1-31.4 19.1-14.7-23.5-11.1-54.1 8.5-73.7 23.3-23.3 61.1-23.3 84.4 0 19.6 19.6 23.2 50.2 8.5 73.7-8.5-9-19.3-15.6-31.3-19.1 6.1-5.4 10-13.3 10-22.1 0-16.2-13.2-29.4-29.4-29.4-8.1 0-15.4 3.3-20.8 8.6zm34.5 34.5c-12.2 12.1-33.1 3.5-33.1-13.7 0-17.2 20.9-25.9 33.1-13.7 7.6 7.6 7.6 19.8 0 27.4zm-58.3 35.7c23.7-26.7 65.5-26.7 89.2 0-23.7 26.7-65.5 26.7-89.2 0z"/>
	<text id="Created by adi_sena" style="transform: matrix(1,0,0,1,-21,506)" >
		<tspan x="0" y="0" class="t1">Created by adi_sena
</tspan>
	</text>
	<text id="from the Noun Project" style="transform: matrix(1,0,0,1,-21,511)" >
		<tspan x="0" y="0" class="t1">from the Noun Project
</tspan>
	</text>
</svg>