<svg version="1.2" xmlns="http://www.w3.org/2000/svg" viewBox="0 0 88 88" width="100" height="100">
	<title>noun-conditions-6647433-svg</title>
	<style>
		tspan { white-space:pre } 
		.s0 { fill: #000000 } 
		.t1 { font-size: 5px;fill: #000000;font-family: "Arbeit  Regular" } 
	</style>
	<g id="Layer">
		<path id="Layer" fill-rule="evenodd" class="s0" d="m83.9 20v54.1q0 0.3-0.2 0.6 0 0 0 0l-4.3 8.4c-0.2 0.5-0.7 0.7-1.2 0.7-0.6 0-1.1-0.2-1.3-0.7l-4.3-8.4q0 0 0 0-0.2-0.3-0.2-0.6v-54.1c0-2.1 1.7-3.8 3.8-3.8h3.9c2.1 0 3.8 1.7 3.8 3.8zm-3.8 55.5h-4l2 3.9zm1-50.4v-5.1c0-0.3-0.2-0.6-0.5-0.8q-0.2-0.1-0.5-0.2h-3.9c-0.5 0-0.9 0.5-0.9 1v5.1z"/>
		<path id="Layer" fill-rule="evenodd" class="s0" d="m58.9 69q0 0.2 0 0.5v0.5q0 0.2 0 0.5 0 0.5-0.1 0.9-0.1 0.3-0.1 0.5-0.2 0.6-0.4 1.2-0.1 0.3-0.3 0.6 0 0.2-0.2 0.5-0.1 0.2-0.2 0.4-0.1 0.2-0.2 0.4-0.1 0.1-0.2 0.2-0.1 0.1-0.2 0.3-0.2 0.2-0.3 0.4-0.3 0.3-0.5 0.5-0.2 0.2-0.3 0.4-0.3 0.2-0.6 0.4-0.1 0.2-0.3 0.3-0.2 0.2-0.4 0.3-0.1 0.1-0.2 0.1-0.2 0.1-0.4 0.3-0.2 0.1-0.4 0.2-0.2 0.1-0.4 0.2-0.4 0.1-0.7 0.3-0.9 0.3-1.8 0.4-0.8 0.1-1.5 0.1-0.8 0-1.5-0.1-1-0.1-1.9-0.4-0.3-0.2-0.6-0.3-0.1-0.1-0.2-0.1-0.1 0-0.1 0-0.1-0.1-0.1-0.1 0 0-0.1 0-0.2-0.1-0.4-0.2-0.1-0.2-0.4-0.3-0.1-0.1-0.2-0.1-0.2-0.1-0.3-0.3-0.2-0.1-0.4-0.3-0.3-0.2-0.5-0.4-0.1-0.1-0.2-0.2c-1.8-1.8-2.9-4.2-2.9-6.9 0-2.7 1.1-5.1 2.9-6.9 1.7-1.7 4.2-2.8 6.9-2.8 1.3 0 2.7 0.3 3.8 0.8q1.8 0.8 3.2 2.2l0.5 0.6q0.1 0.1 0.2 0.3 0.2 0.2 0.3 0.4 0.1 0.1 0.2 0.2 0.1 0.2 0.2 0.4 0.1 0.2 0.2 0.4 0.1 0.2 0.2 0.4l0.1 0.2q0.1 0.2 0.2 0.5c0.1 0.2 0.1 0.3 0.3 0.8v0.2q0 0.1 0 0.1 0.1 0.3 0.1 0.5 0.1 0.5 0.2 1zm-3.4-3.9q-0.1-0.1-0.1-0.2-0.1-0.1-0.2-0.2 0-0.2-0.1-0.3c-0.6-0.4-1.4-0.4-1.9 0l-0.2 0.2-6.5 7.3-1.8-1.6c-0.5-0.6-1.4-0.5-2 0q-0.1 0.1-0.1 0.3-0.1 0.1-0.1 0.2-0.1 0.1-0.1 0.1 0 0.2 0 0.4c0 0.4 0.1 0.8 0.4 1l2.9 2.7q0.1 0.1 0.2 0.1 0.3 0.2 0.7 0.2h0.1q0.3 0 0.5-0.1 0.2-0.1 0.4-0.2 0-0.1 0.1-0.1l7.5-8.4q0-0.1 0-0.1 0.2-0.2 0.2-0.4c0.2-0.3 0.2-0.7 0.1-0.9z"/>
		<path id="Layer" fill-rule="evenodd" class="s0" d="m70.2 13.5q0 0 0 0.1v65.3c0 4.8-3.9 8.8-8.8 8.8h-48.6c-4.8 0-8.7-4-8.7-8.8v-69.8c0-4.8 3.9-8.8 8.7-8.8h45q0.1 0.1 0.2 0.1 0.1 0 0.2 0c0.2 0.1 0.4 0.2 0.6 0.4l11 11.9q0.2 0.2 0.3 0.6 0.1 0.1 0.1 0.2zm-8.4 56.2c0-1.6-0.4-3.1-0.9-4.6q-0.1-0.3-0.3-0.5-0.9-2.1-2.5-3.7c-2.3-2.3-5.4-3.7-8.9-3.7-3.5 0-6.6 1.4-8.9 3.7-1 1-1.9 2.3-2.5 3.7q-0.2 0.2-0.3 0.5c-0.6 1.5-0.9 3-0.9 4.6 0 3.5 1.4 6.6 3.7 8.9 2.3 2.3 5.4 3.7 8.9 3.7q0.5 0 0.9-0.1 0.3 0 0.7 0 0.3-0.1 0.6-0.1 1.1-0.2 2.1-0.6c1.7-0.6 3.3-1.6 4.6-2.9 2.2-2.3 3.6-5.4 3.7-8.9zm0.1-20.8c0-0.4-0.1-0.8-0.4-1-0.2-0.3-0.6-0.4-1-0.4h-46.7c-0.4 0-0.8 0.1-1 0.4-0.3 0.2-0.4 0.6-0.4 1 0 0.4 0.1 0.7 0.4 1 0.2 0.2 0.6 0.4 1 0.4h46.7c0.4 0 0.8-0.2 1-0.4 0.3-0.3 0.4-0.6 0.4-1zm0-9.7c0-0.4-0.1-0.7-0.4-1-0.2-0.2-0.6-0.4-1-0.4h-46.7c-0.4 0-0.8 0.2-1 0.4-0.3 0.3-0.4 0.6-0.4 1 0 0.4 0.1 0.8 0.4 1 0.2 0.3 0.6 0.4 1 0.4h46.7c0.4 0 0.8-0.1 1-0.4 0.3-0.2 0.4-0.6 0.4-1zm0-9.7c0-0.4-0.1-0.7-0.4-1-0.2-0.2-0.6-0.4-1-0.4h-46.7c-0.4 0-0.8 0.2-1 0.4-0.3 0.3-0.4 0.6-0.4 1 0 0.4 0.1 0.8 0.4 1 0.2 0.3 0.6 0.4 1 0.4h46.7c0.4 0 0.8-0.1 1-0.4 0.3-0.2 0.4-0.6 0.4-1zm0-9.7c0-0.4-0.1-0.7-0.4-1-0.2-0.2-0.6-0.4-1-0.4h-46.7c-0.4 0-0.8 0.2-1 0.4-0.3 0.3-0.4 0.6-0.4 1 0 0.4 0.1 0.8 0.4 1 0.2 0.3 0.6 0.4 1 0.4h46.7c0.4 0 0.8-0.1 1-0.4 0.3-0.2 0.4-0.6 0.4-1zm3.6-7.6l-6.3-6.8v3.7q0 0.4 0.1 0.8 0 0.1 0.1 0.3 0 0.1 0 0.1 0.1 0.2 0.2 0.3 0.2 0.4 0.5 0.7c0.5 0.5 1.2 0.9 2 0.9h0.1z"/>
	</g>
	<text id="Created by Creative Studio" style="transform: matrix(1,0,0,1,-6,111.5)" >
		<tspan x="0" y="0" class="t1">Created by Creative Studio
</tspan>
	</text>
	<text id="from Noun Project" style="transform: matrix(1,0,0,1,-6,116.5)" >
		<tspan x="0" y="0" class="t1">from Noun Project
</tspan>
	</text>
</svg>